#!OML:ASF F:\VICON\USERDATA\INSTALL\rory3\rory3.ASF
:FULLY-SPECIFIED
:DEGREES
62
root -6.059106179541118 18.022695543291576 -0.04746136669930001 -166.85532532785496 74.10076551260423 -183.05868459427234
lfemur -33.60440081261776 5.938956636320378 -16.305698109062217
ltibia 23.223584157050496
lfoot -3.624382964777551 -17.51266694748282
ltoes -13.061682277529952
rfemur -26.254132382511152 -5.206010757819514 7.40398200212643
rtibia 34.47468833681233
rfoot -9.924891073322215 -30.693775141136577
rtoes -5.9397968961814485
lowerback -3.0639778622933074 -8.846791909299524 2.631752346121687
upperback 5.732410298224096 -11.80842722153536 9.032819704315237
thorax 9.479313989811441 -6.055498809819147 7.523662030125837
lowerneck -12.769435326648058 1.1204615504959938 2.6842356124437483
upperneck 28.173796479332115 5.884390711187395 -13.903033624086444
head 11.722077674951421 1.5460302535100023 -4.328751032850147
lclavicle -4.331385672445981e-15 -9.724260694975447e-15
lhumerus 47.91701941556455 -60.51209187457874 80.29971857181813
lradius 19.458116257321294
lwrist -0.726001883021457
lhand -3.74465831988625 30.83470352954816
lfingers 7.125020000000001
lthumb -158.01807433456207 102.6460961604821
rclavicle -4.33138567244598e-15 -9.724260694975447e-15
rhumerus -1.0661792265633565 -6.309415006356771 -79.99467569961509
rradius 72.12211486651647
rwrist -54.386423443933616
rhand -62.71349890130317 10.515607920153748
rfingers 7.125020000000001
rthumb -34.74783497585788 -16.567320093042515
63
root -5.984461495529379 18.072381373478628 -0.2641715265381898 -182.2530843915051 66.24985893090616 -196.4210535615358
lfemur -29.19017685438358 4.0264812048798575 -18.273097327599487
ltibia 19.02147034279028
lfoot -2.1536994843214385 -22.782635338244056
ltoes -9.445101395429019
rfemur -21.58325856831356 -5.156265615863862 5.523902854609027
rtibia 35.92275248315183
rfoot -9.248933943281543 -33.130800885902374
rtoes 1.3978994974680283
lowerback -5.145332999719338 -7.873927632371881 3.7580412733397823
upperback 5.263048185976647 -10.611492470509653 10.303675981676797
thorax 10.134968331416754 -5.357292393676696 8.218443370160077
lowerneck -12.120389600418846 -2.35485310118884 1.0156951702479549
upperneck 29.45158626420275 1.4810530005176155 -13.552429986502773
head 11.46157826737144 -0.4942419403518918 -4.49061025532343
lclavicle -4.3260432378222925e-15 -9.71394720155749e-15
lhumerus 37.745462910006026 -60.08187716044164 84.8723747875709
lradius 18.97421236004237
lwrist 0.6682436292329399
lhand -0.08135013077556508 38.83339002494704
lfingers 7.125020000000001
lthumb -154.511153160455 95.29513713661545
rclavicle -4.3260432378222925e-15 -9.71394720155749e-15
rhumerus -4.253002210093108 -1.6409760350858136 -82.27490200161058
rradius 64.05897090004746
rwrist -62.16603996452489
rhand -59.09918631885091 4.9176730711410155
rfingers 7.125020000000001
rthumb -31.292628414640205 -22.513895873801346
64
root -5.902427684241787 18.11678388996936 -0.4756755355065062 -186.41372506934462 58.57787990686796 -198.50197965444443
lfemur -24.202578215889798 2.7605811363508765 -20.21183065086455
ltibia 14.806635020438806
lfoot -0.38912540832056397 -27.133628595372464
ltoes -4.884705693584841
rfemur -17.028000530695905 -4.847657465827321 4.00362120814693
rtibia 37.085095100792834
rfoot -7.825623957825505 -34.37291823697459
rtoes 8.02708967973898
lowerback -6.914607155130375 -6.548533610820483 4.386902658390612
upperback 4.571757070384701 -8.901182172081182 11.443821403467577
thorax 10.328006187492708 -4.416718824164022 9.179237319444617
lowerneck -11.016696643651889 -5.8684129448186395 -0.8461061272767885
upperneck 30.44430683956724 -3.014927019353556 -13.07432381101034
head 11.096820058443573 -2.5544837051636797 -4.503436129483822
lclavicle -4.483082435268635e-15 -9.809362676410878e-15
lhumerus 28.530170561932998 -59.162594729531946 88.52817977135865
lradius 18.805556467715473
lwrist 4.00629696544855
lhand 4.097413087912765 48.47901696757506
lfingers 7.125020000000001
lthumb -150.51435051516248 78.43476785760079
rclavicle -4.483082435268635e-15 -9.809362676410878e-15
rhumerus -5.564828227759065 2.7622372608334396 -85.29164286765942
rradius 54.35999557557877
rwrist -68.21774353725745
rhand -52.93235388713509 -1.5702767677154128
rfingers 7.125020000000001
rthumb -25.3827022536889 -29.504737649008018
65
root -5.821989140553791 18.145330260332738 -0.6608435757332888 -184.1030252838571 52.24469401367013 -194.175414154843
lfemur -19.294910245022944 1.7851256659110923 -21.855846410047135
ltibia 11.260177496165323
lfoot 1.526785793804983 -30.182086546101047
ltoes 0.3453063709597717
rfemur -12.636109279658005 -4.367317255657513 2.9351321511283857
rtibia 37.91995518836589
rfoot -5.344553701247542 -34.581102395274854
rtoes 12.598727974324067
lowerback -8.163279048692496 -4.890861881322346 4.726702051713433
upperback 3.736212812553859 -6.6230721139295285 12.4121694060428
thorax 9.948485066539497 -3.1858076032877563 10.282307748609302
lowerneck -9.532453016333443 -9.237150211663502 -2.611797515844006
upperneck 31.153812632922694 -7.438892355333426 -12.302323216389837
head 10.71596750374878 -4.537073100032784 -4.352971811549556
lclavicle -4.29606053288916e-15 -9.602280658026061e-15
lhumerus 21.198848135489357 -56.94830692201117 91.30962620457261
lradius 19.007534789475294
lwrist 10.05189377975682
lhand 7.643609316355322 58.74363163001351
lfingers 7.125020000000001
lthumb -147.1237225532697 56.87499976317656
rclavicle -4.296060532889161e-15 -9.602280658026061e-15
rhumerus -4.335920568085172 6.6336866606242175 -88.6478819976414
rradius 43.79016711154993
rwrist -70.07610032182198
rhand -43.65839343707608 -7.669430017099707
rfingers 7.125020000000001
rthumb -16.47241325975897 -36.13802143514685
66
root -5.747795918906891 18.147792414730176 -0.8429112159291106 -181.24497805799078 46.91492072263099 -189.46188934877762
lfemur -15.278778348476221 0.5294504543803704 -23.050232667180467
ltibia 8.991105827201824
lfoot 3.3137513419873086 -32.30338274732069
ltoes 5.447271547499552
rfemur -8.637832245019142 -4.196059072706093 2.296860610453706
rtibia 38.05314407803018
rfoot -2.2016315856854023 -34.198406213103794
rtoes 14.407072446531433
lowerback -8.901464266957666 -3.1065697187646104 4.891136573523847
upperback 2.6932060205463326 -4.070683832848328 13.169790532607486
thorax 8.908406664234462 -1.819311579941116 11.311808792413457
lowerneck -7.801261818949941 -12.529406388628262 -4.257860557503264
upperneck 31.574444578897747 -11.958917705431542 -11.258995486913616
head 10.389244986813491 -6.531195546664521 -4.050209734300437
lclavicle -4.615112364969011e-15 -9.840276135986678e-15
lhumerus 15.943490107069657 -52.735011013511766 93.64237854855081
lradius 19.423391164033134
lwrist 18.643792315386804
lhand 8.879516031715154 67.23642738656379
lfingers 7.125020000000001
lthumb -145.9427309962616 32.812057583211384
rclavicle -4.615112364969011e-15 -9.840276135986678e-15
rhumerus -1.00691422060941 9.908092788658443 -91.87688374812022
rradius 33.624140799134295
rwrist -66.17045843304005
rhand -32.16241790612819 -12.16346167826051
rfingers 7.125020000000001
rthumb -5.401950129078537 -41.01114458818531
